<svg width="80" height="80" viewBox="0 0 80 80" fill="none" xmlns="http://www.w3.org/2000/svg">
<path d="M71.4285 0H17.1427C15.5647 0 14.2855 1.27918 14.2855 2.8572V11.4286H8.57131C6.9933 11.4286 5.71411 12.7078 5.71411 14.2858V77.1428C5.71411 78.7208 6.9933 80 8.57131 80H59.9998C61.5778 80 62.857 78.7208 62.857 77.1428V74.2856H71.4285C73.0065 74.2856 74.2857 73.0064 74.2857 71.4284V2.85703C74.2855 1.27918 73.0063 0 71.4285 0ZM48.5712 65.7142H19.9999C18.4219 65.7142 17.1427 64.435 17.1427 62.857C17.1427 61.279 18.4219 59.9998 19.9999 59.9998H48.5714C50.1494 59.9998 51.4286 61.279 51.4286 62.857C51.4284 64.435 50.1492 65.7142 48.5712 65.7142ZM48.5712 54.2857H19.9999C18.4219 54.2857 17.1427 53.0065 17.1427 51.4285C17.1427 49.8505 18.4219 48.5713 19.9999 48.5713H48.5714C50.1494 48.5713 51.4286 49.8505 51.4286 51.4285C51.4286 53.0065 50.1492 54.2857 48.5712 54.2857ZM48.5712 42.8571H19.9999C18.4219 42.8571 17.1427 41.5779 17.1427 39.9999C17.1427 38.4219 18.4219 37.1427 19.9999 37.1427H48.5714C50.1494 37.1427 51.4286 38.4219 51.4286 39.9999C51.4286 41.5779 50.1492 42.8571 48.5712 42.8571ZM48.5712 25.7143V21.1828L53.1027 25.7143H48.5712ZM68.5713 68.5714H62.857V28.5715C62.8532 27.8131 62.5515 27.0867 62.017 26.5486L47.7313 12.2628C47.1938 11.7318 46.4697 11.4325 45.7142 11.4286H19.9999V5.71423H68.5713V68.5714Z" fill="#714668"/>
</svg>
