<svg width="80" height="80" viewBox="0 0 80 80" fill="none" xmlns="http://www.w3.org/2000/svg">
<g clip-path="url(#clip0)">
<path d="M79.6512 31.6844C79.0528 30.4946 77.7858 29.7713 76.4767 29.8851L72.4972 30.1759C68.1806 14.5741 53.8923 3.06714 36.9335 3.06714C16.5683 3.06688 0 19.6364 0 40.0001C0 60.3652 16.5683 76.9333 36.9332 76.9333C48.7214 76.9333 59.9011 71.2302 66.839 61.6798C67.9038 60.2106 67.5763 58.1597 66.1099 57.0921C64.6407 56.026 62.5883 56.3573 61.5235 57.8196C55.8163 65.6761 46.6241 70.3676 36.9317 70.3676C20.1865 70.3676 6.56518 56.745 6.56518 40.0011C6.56518 23.2572 20.1867 9.63515 36.9319 9.63515C50.4182 9.63515 61.8665 18.4789 65.815 30.6661L63.743 30.8177C62.4197 30.9133 61.2833 31.8009 60.8662 33.0597C60.4476 34.321 60.8324 35.7089 61.8355 36.5769L67.7969 41.725C68.3769 42.6591 69.4025 43.2841 70.5796 43.2841C70.6413 43.2841 70.6989 43.2701 70.7593 43.2673C70.779 43.2673 70.7945 43.2758 70.8128 43.2758C70.8916 43.2758 70.9716 43.2745 71.053 43.2673C71.921 43.2027 72.7273 42.7967 73.2978 42.1379L79.1987 35.3055C80.0698 34.3014 80.2467 32.8698 79.6512 31.6844Z" fill="#714668"/>
<path d="M19.5688 51.4425V48.2538L22.4766 45.6258C27.3915 41.2292 29.7796 38.7006 29.8483 36.071C29.8483 34.2351 28.7414 32.7826 26.1428 32.7826C24.2059 32.7826 22.5089 33.749 21.3317 34.6522L19.8429 30.8764C21.5396 29.5996 24.1692 28.5588 27.2161 28.5588C32.3053 28.5588 35.109 31.5353 35.109 35.6201C35.109 39.393 32.3756 42.4061 29.1208 45.3125L27.0433 47.0431V47.1105H35.5248V51.4397H19.5688V51.4425Z" fill="#714668"/>
<path d="M48.1038 51.4425V46.0751H38.1348V42.6506L46.65 28.9395H53.0892V42.1294H55.789V46.0751H53.0892V51.4425C53.0889 51.4425 48.1038 51.4425 48.1038 51.4425ZM48.1038 42.1294V37.1456C48.1038 35.7944 48.1727 34.4122 48.2765 32.9569H48.1389C47.4098 34.4122 46.8213 35.727 46.0615 37.1456L43.0499 42.0605V42.1294H48.1038Z" fill="#714668"/>
</g>
<defs>
<clipPath id="clip0">
<rect width="80" height="80" fill="white"/>
</clipPath>
</defs>
</svg>
