<svg width="32" height="32" viewBox="0 0 32 32" fill="none" xmlns="http://www.w3.org/2000/svg">
<path d="M0 3.87879C0 1.73659 1.73659 0 3.87879 0H28.1212C30.2634 0 32 1.73659 32 3.87879V28.1212C32 30.2634 30.2634 32 28.1212 32H3.87879C1.73659 32 0 30.2634 0 28.1212V3.87879Z" fill="#F63E7C"/>
<path d="M12.4314 22.8558C10.3498 22.8558 8.72721 22.2933 7.56357 21.1685C6.39993 20.0436 5.81812 18.4663 5.81812 16.4364V8.9697H10.3951V16.3006C10.3951 17.2962 10.5696 18.0202 10.9187 18.4727C11.2807 18.9253 11.7979 19.1515 12.4702 19.1515C13.1426 19.1515 13.6533 18.9253 14.0024 18.4727C14.3644 18.0202 14.5454 17.2962 14.5454 16.3006V8.9697H19.0448V16.4364C19.0448 18.4663 18.463 20.0436 17.2993 21.1685C16.1357 22.2933 14.5131 22.8558 12.4314 22.8558Z" fill="white"/>
<path d="M23.6508 22.943C22.9139 22.943 22.2997 22.7103 21.8084 22.2448C21.33 21.7665 21.0908 21.1588 21.0908 20.4218C21.0908 19.6848 21.33 19.0901 21.8084 18.6376C22.2997 18.1721 22.9139 17.9394 23.6508 17.9394C24.3878 17.9394 24.9955 18.1721 25.4739 18.6376C25.9652 19.0901 26.2108 19.6848 26.2108 20.4218C26.2108 21.1588 25.9652 21.7665 25.4739 22.2448C24.9955 22.7103 24.3878 22.943 23.6508 22.943Z" fill="white"/>
</svg>
